<?xml version="1.0" encoding="UTF-8"?>
<svg width="182px" height="56px" viewBox="0 0 182 56" version="1.1" xmlns="http://www.w3.org/2000/svg" xmlns:xlink="http://www.w3.org/1999/xlink">
    <title>logo_v2</title>
    <defs>
        <rect id="path-1" x="0" y="0" width="182" height="56"></rect>
    </defs>
    <g id="website" stroke="none" stroke-width="1" fill="none" fill-rule="evenodd">
        <g id="2.1-v1_rise_menu-folded-in" transform="translate(-36.000000, -16.000000)">
            <g id="logo" transform="translate(36.000000, 16.000000)">
                <mask id="mask-2" fill="white">
                    <use xlink:href="#path-1"></use>
                </mask>
                <g id="Rectangle"></g>
                <path d="M31.2677282,12.2174439 C27.8480259,9.58201975 23.7528864,8.18891269 19.4256096,8.18891269 C14.2395099,8.18891269 9.36377692,10.2084219 5.69663161,13.8755672 C2.02948631,17.5427125 0.00997708416,22.4184455 0.00997708416,27.6045452 L0.00997708416,30.7195496 L13.293671,22.4609615 L10.4686256,20.1398722 L3.82281049,24.271859 C5.35933814,17.0696513 11.7715988,11.6516978 19.4256096,11.6516978 C26.4163711,11.6516978 32.6228543,16.2522107 34.6721248,22.8934908 C34.6908318,22.9549972 36.2146046,22.3529709 37.9172281,21.6724317 C36.7211117,17.9525666 34.3804651,14.6164791 31.2677282,12.2174439" id="Fill-1" fill="#F2F2F2" mask="url(#mask-2)"></path>
                <path d="M25.58011,31.2948192 L29.5661252,33.2049206 L35.1150279,30.5020378 C33.7482808,37.9205101 27.2331314,43.5575626 19.4254962,43.5575626 C12.0778839,43.5575626 5.75235589,38.625992 3.95988202,31.5348928 C3.94911131,31.4918099 2.31366314,32.46741 0.867552817,33.3242488 C2.00839838,37.0166203 4.26004487,40.335418 7.2999377,42.7687494 C10.724175,45.5104635 15.0304773,47.0200643 19.4254962,47.0200643 C24.6115959,47.0200643 29.4873289,45.0005551 33.1544742,41.3334098 C36.8216195,37.6662645 38.8411287,32.7905315 38.8411287,27.6044318 L38.8411287,24.8355075 L25.58011,31.2948192 Z" id="Fill-4" fill="#F15A24" mask="url(#mask-2)"></path>
                <path d="M58.2706498,36.2005118 C58.2706498,36.8413694 57.7216267,37.390109 57.081336,37.390109 L46.4656618,37.390109 C45.7944761,37.390109 45.2454531,36.8413694 45.2454531,36.2005118 L45.2454531,25.8903858 C45.2454531,25.2495282 45.7944761,24.7007886 46.4656618,24.7007886 L57.081336,24.7007886 C57.7216267,24.7007886 58.2706498,25.2495282 58.2706498,25.8903858 L58.2706498,36.2005118 Z M57.081336,22.1994315 L42.7443795,22.1994315 L42.7443795,46.9074537 L45.2454531,46.9074537 L45.2454531,39.8914661 L57.081336,39.8914661 C59.1249376,39.8914661 60.7720068,38.2443968 60.7720068,36.2005118 L60.7720068,25.8903858 C60.7720068,23.8465007 59.1249376,22.1994315 57.081336,22.1994315 L57.081336,22.1994315 Z" id="Fill-6" fill="#F2F2F2" mask="url(#mask-2)"></path>
                <path d="M78.4023649,29.7948553 L65.4074962,29.7948553 L65.4074962,25.8904708 C65.4074962,25.2496132 65.9568027,24.7005901 66.5976603,24.7005901 L77.2127676,24.7005901 C77.8836699,24.7005901 78.4023649,25.2496132 78.4023649,25.8904708 L78.4023649,29.7948553 Z M77.2127676,22.1992331 L66.5976603,22.1992331 C64.5537752,22.1992331 62.9064226,23.8465858 62.9064226,25.8904708 L62.9064226,36.2005968 C62.9064226,38.2444819 64.5537752,39.8915511 66.5976603,39.8915511 L80.9343334,39.8915511 L80.9343334,37.390194 L66.5976603,37.390194 C65.9568027,37.390194 65.4074962,36.841171 65.4074962,36.2005968 L65.4074962,32.2959289 L80.9343334,32.2959289 L80.9343334,25.8904708 C80.9343334,23.8465858 79.2869808,22.1992331 77.2127676,22.1992331 L77.2127676,22.1992331 Z" id="Fill-8" fill="#F2F2F2" mask="url(#mask-2)"></path>
                <path d="M98.4421603,22.1992898 L84.1057707,22.1992898 L84.1057707,39.8916078 L86.6068443,39.8916078 L86.6068443,25.8902441 C86.6068443,25.2496699 87.1561508,24.7006468 87.8273364,24.7006468 L98.4421603,24.7006468 C99.0827345,24.7006468 99.6317576,25.2496699 99.6317576,25.8902441 L99.6317576,39.8916078 L102.133115,39.8916078 L102.133115,25.8902441 C102.133115,23.8466424 100.486329,22.1992898 98.4421603,22.1992898" id="Fill-10" fill="#F2F2F2" mask="url(#mask-2)"></path>
                <path d="M126.657156,35.9105528 C126.657156,36.607248 126.060232,37.2044559 125.363536,37.2044559 L109.438749,37.2044559 C108.742054,37.2044559 108.144846,36.607248 108.144846,35.9105528 L108.144846,19.985766 C108.144846,19.2893542 108.742054,18.6918629 109.438749,18.6918629 L125.363536,18.6918629 C126.060232,18.6918629 126.657156,19.2893542 126.657156,19.985766 L126.657156,35.9105528 Z M125.363536,16.0048527 L105.457553,16.0048527 L105.457553,39.8914661 L125.363536,39.8914661 C127.585988,39.8914661 129.344166,38.1332884 129.344166,35.9105528 L129.344166,19.985766 C129.344166,17.7633138 127.585988,16.0048527 125.363536,16.0048527 L125.363536,16.0048527 Z" id="Fill-12" fill="#F15A24" mask="url(#mask-2)"></path>
                <polygon id="Fill-14" fill="#F15A24" mask="url(#mask-2)" points="133.125906 39.8915794 154.92215 39.8915794 154.92215 37.2045693 135.812916 37.2045693 135.812916 29.3085008 151.173658 29.3085008 151.173658 26.5880447 135.812916 26.5880447 135.812916 18.6919762 154.92215 18.6919762 154.92215 16.0049661 133.125906 16.0049661"></polygon>
                <path d="M171.642468,27.9482161 L181.661501,16.0049094 L178.211187,16.0049094 L169.917169,25.8581303 L161.589989,16.0049094 L158.139675,16.0049094 L168.158992,27.9482161 L158.139675,39.8915227 L161.589989,39.8915227 L169.917169,30.0385853 L178.211187,39.8915227 L181.694947,39.8915227 C178.377283,36.0098134 174.860644,31.8299254 171.642468,27.9482161" id="Fill-16" fill="#F15A24" mask="url(#mask-2)"></path>
            </g>
        </g>
    </g>
</svg>