<?xml version="1.0" encoding="UTF-8"?>
<svg width="42px" height="32px" viewBox="0 0 42 32" version="1.1" xmlns="http://www.w3.org/2000/svg" xmlns:xlink="http://www.w3.org/1999/xlink">
    <title>BTC_32</title>
    <defs>
        <radialGradient cx="50%" cy="50.8164929%" fx="50%" fy="50.8164929%" r="49.1890632%" id="radialGradient-1">
            <stop stop-color="#FF4400" offset="0%"></stop>
            <stop stop-color="#0A0E1A" offset="100%"></stop>
        </radialGradient>
    </defs>
    <g id="website" stroke="none" stroke-width="1" fill="none" fill-rule="evenodd">
        <g id="2.2-v1_fall_menu-folded-out" transform="translate(-947.000000, -380.000000)">
            <g id="background" transform="translate(0.000000, -732.000000)">
                <rect id="frame" fill="#0C0C0C" x="0" y="732" width="1440" height="1024"></rect>
                <circle id="Oval" fill="url(#radialGradient-1)" opacity="0.0458308629" cx="720" cy="720" r="720"></circle>
            </g>
            <g id="swap" transform="translate(923.000000, 212.000000)">
                <g id="amount" transform="translate(0.000000, 47.000000)">
                    <path d="M2,0 L478,0 C479.104569,-2.02906125e-16 480,0.8954305 480,2 L480,191 C480,192.104569 479.104569,193 478,193 L2,193 C0.8954305,193 1.3527075e-16,192.104569 0,191 L0,2 C-1.3527075e-16,0.8954305 0.8954305,2.02906125e-16 2,0 Z" id="Rectangle" fill="#1A1817"></path>
                    <polygon id="Rectangle" fill-opacity="0.0479932665" fill="#FFFFFF" points="0 0 197 0 197 193 0 193"></polygon>
                    <g id="you-receive" transform="translate(19.000000, 121.000000)" fill-rule="nonzero">
                        <g id="symbol_bitcoin" transform="translate(13.000000, 0.000000)">
                            <circle id="Oval" fill="#F7931A" cx="24" cy="24" r="24"></circle>
                            <path d="M22.594,8.23599998 L25.186,8.88200002 L24.144,13.057 C24.84,13.216 25.54,13.376 26.222,13.546 L27.256,9.39800002 L29.848,10.045 L28.786,14.304 C32.06,15.432 34.454,17.122 33.984,20.266 C33.643,22.568 32.367,23.682 30.673,24.073 C32.999,25.284 34.183,27.141 33.056,30.361 C31.656,34.36 28.332,34.697 23.91,33.861 L22.837,38.161 L20.245,37.515 L21.304,33.272 C20.6131161,33.1006788 19.924077,32.922002 19.237,32.736 L18.175,36.998 L15.585,36.352 L16.658,32.044 C16.4145186,31.9815733 16.1711846,31.9185731 15.928,31.855 C15.559,31.759 15.186,31.661 14.81,31.567 L11.436,30.726 L12.723,27.758 C12.723,27.758 14.633,28.266 14.607,28.228 C15.341,28.41 15.667,27.932 15.795,27.613 L17.491,20.815 L17.677,20.861 L17.765,20.883 C17.6770669,20.8482085 17.5868562,20.8194747 17.495,20.797 L18.705,15.944 C18.737,15.393 18.547,14.698 17.497,14.436 C17.537,14.409 15.614,13.968 15.614,13.968 L16.304,11.199 L19.879,12.092 L19.876,12.105 C20.414,12.239 20.968,12.366 21.532,12.494 L22.594,8.23599998 L22.594,8.23599998 Z M21.504,23.908 L20.08,29.616 C20.225,29.652 20.395,29.697 20.585,29.747 L20.723,29.784 C22.896,30.356 27.341,31.464 28.06,28.573 C28.813,25.553 24.329,24.547 22.141,24.056 L21.963,24.016 C21.8095104,23.9821136 21.6564958,23.9461102 21.504,23.908 L21.504,23.908 Z M23.446,16.119 L22.155,21.296 L22.284,21.329 L22.58,21.407 C24.344,21.878 28.192,22.905 28.862,20.22 C29.546,17.474 25.807,16.646 23.981,16.242 C23.775,16.196 23.594,16.156 23.446,16.119 Z" id="Shape" fill="#FFFFFF"></path>
                        </g>
                    </g>
                </g>
            </g>
            <g id="menu-folded-out" transform="translate(923.000000, 364.000000)">
                <path d="M2,0 L195,0 C196.104569,-2.02906125e-16 197,0.8954305 197,2 L197,350 C197,351.104569 196.104569,352 195,352 L2,352 C0.8954305,352 1.3527075e-16,351.104569 0,350 L0,2 C-5.7935996e-16,0.8954305 0.8954305,2.02906125e-16 2,0 Z" id="Rectangle" fill="#302E2C"></path>
                <g id="BTC" transform="translate(24.000000, 16.000000)" fill-rule="nonzero">
                    <g transform="translate(9.219512, 0.000000)">
                        <path d="M32.2904878,19.87 C30.1017073,28.4416667 21.2082927,33.6583333 12.427561,31.52 C3.64853659,29.3833333 -1.69536585,20.7016667 0.495121951,12.1316667 C2.68219512,3.55833333 11.5756098,-1.65833333 20.3546341,0.478333333 C29.1353659,2.615 34.4792683,11.2983333 32.2904878,19.87 L32.2904878,19.87 Z" id="Path_1_" fill="#F7941F"></path>
                        <path d="M23.6190244,13.72 C23.945122,11.5916667 22.2856098,10.4466667 20.014878,9.68333333 L20.7507317,6.8 L18.9512195,6.36166667 L18.2341463,9.17 C17.7612195,9.055 17.2763415,8.94666667 16.7931707,8.83833333 L17.5153659,6.01166667 L15.717561,5.575 L14.98,8.45833333 C14.5890244,8.37166667 14.204878,8.285 13.8309756,8.195 L13.8326829,8.18666667 L11.3519512,7.58166667 L10.8739024,9.45666667 C10.8739024,9.45666667 12.2073171,9.755 12.18,9.77333333 C12.9090244,9.95 13.0404878,10.4216667 13.0182927,10.795 L12.18,14.08 C12.2295122,14.0916667 12.2943902,14.11 12.3660976,14.1383333 C12.3063415,14.1233333 12.2414634,14.1083333 12.1765854,14.0916667 L11.0002439,18.6933333 C10.9114634,18.91 10.6860976,19.2333333 10.1756098,19.11 C10.1926829,19.135 8.86780488,18.7916667 8.86780488,18.7916667 L7.97487805,20.8016667 L10.3156098,21.3716667 C10.7509756,21.4783333 11.1778049,21.59 11.5978049,21.695 L10.8534146,24.6116667 L12.6495122,25.0483333 L13.3870732,22.1616667 C13.8770732,22.2916667 14.3534146,22.4116667 14.8195122,22.525 L14.0853659,25.3966667 L15.8831707,25.8333333 L16.627561,22.9216667 C19.6939024,23.4883333 22.0004878,23.26 22.9702439,20.5516667 C23.7521951,18.3716667 22.9309756,17.115 21.317561,16.295 C22.4973171,16.0333333 23.3817073,15.2783333 23.6190244,13.72 L23.6190244,13.72 Z M19.5095122,19.345 C18.9546341,21.525 15.1934146,20.3466667 13.9743902,20.0516667 L14.9612195,16.1866667 C16.1819512,16.4833333 20.09,17.0716667 19.5095122,19.345 Z M20.0660976,13.6883333 C19.5590244,15.6716667 16.4295122,14.6633333 15.4136585,14.4166667 L16.3082927,10.9116667 C17.3241463,11.16 20.5936585,11.62 20.0660976,13.6883333 Z" id="Shape_1_" fill="#FFFFFF"></path>
                    </g>
                </g>
            </g>
        </g>
    </g>
</svg>