<?xml version="1.0" encoding="UTF-8"?>
<svg width="42px" height="32px" viewBox="0 0 42 32" version="1.1" xmlns="http://www.w3.org/2000/svg" xmlns:xlink="http://www.w3.org/1999/xlink">
    <title>ETH_32</title>
    <defs>
        <radialGradient cx="50%" cy="50.8164929%" fx="50%" fy="50.8164929%" r="49.1890632%" id="radialGradient-1">
            <stop stop-color="#FF4400" offset="0%"></stop>
            <stop stop-color="#0A0E1A" offset="100%"></stop>
        </radialGradient>
    </defs>
    <g id="website" stroke="none" stroke-width="1" fill="none" fill-rule="evenodd">
        <g id="2.2-v1_fall_menu-folded-out" transform="translate(-947.000000, -524.000000)">
            <g id="background" transform="translate(0.000000, -732.000000)">
                <rect id="frame" fill="#0C0C0C" x="0" y="732" width="1440" height="1024"></rect>
                <circle id="Oval" fill="url(#radialGradient-1)" opacity="0.0458308629" cx="720" cy="720" r="720"></circle>
            </g>
            <g id="swap" transform="translate(923.000000, 212.000000)">
                <g id="fee-and-rate" transform="translate(0.000000, 256.000000)">
                    <rect id="Rectangle" fill="#1A1817" x="0" y="0" width="480" height="232" rx="2"></rect>
                    <text id="Max-amount" font-family="ApercuPro-Regular, Apercu Pro" font-size="16" font-weight="normal" fill="#979797">
                        <tspan x="24" y="74">Max amount</tspan>
                    </text>
                </g>
            </g>
            <g id="menu-folded-out" transform="translate(923.000000, 364.000000)">
                <path d="M2,0 L195,0 C196.104569,-2.02906125e-16 197,0.8954305 197,2 L197,350 C197,351.104569 196.104569,352 195,352 L2,352 C0.8954305,352 1.3527075e-16,351.104569 0,350 L0,2 C-5.7935996e-16,0.8954305 0.8954305,2.02906125e-16 2,0 Z" id="Rectangle" fill="#302E2C"></path>
                <rect id="Rectangle" fill="#3D3A38" x="0" y="152" width="197" height="48"></rect>
                <g id="ETH" transform="translate(24.000000, 160.000000)">
                    <g transform="translate(9.219512, 0.000000)">
                        <ellipse id="Oval" fill="#6479C0" cx="16.3902439" cy="16" rx="16.3902439" ry="16"></ellipse>
                        <g transform="translate(9.219512, 4.000000)" fill-rule="nonzero" id="Path">
                            <polygon fill="#C2CAE6" points="7.17073171 0 7.17073171 0.560892677 7.17073171 16.8352582 7.17073171 17 14.3414634 12.5346315"></polygon>
                            <polygon fill="#FFFFFF" points="7.17073171 0 0 12.5346315 7.17073171 17 7.17073171 9.10087386"></polygon>
                            <polygon fill="#C2CAE6" points="7.17073171 18.1924741 7.17073171 23.7447918 7.25794404 24 14.3414634 14"></polygon>
                            <polygon fill="#FFFFFF" points="7.17073171 24 7.17073171 18.1924741 0 14"></polygon>
                            <polygon fill="#8294CD" points="7.17073171 17 14.3414634 12.5346315 7.17073171 9"></polygon>
                            <polygon fill="#C2CAE6" points="0 12.5346315 7.17073171 17 7.17073171 9"></polygon>
                        </g>
                    </g>
                </g>
            </g>
        </g>
    </g>
</svg>