<?xml version="1.0" encoding="UTF-8"?>
<svg width="42px" height="32px" viewBox="0 0 42 32" version="1.1" xmlns="http://www.w3.org/2000/svg" xmlns:xlink="http://www.w3.org/1999/xlink">
    <title>LN-BTC_32</title>
    <defs>
        <radialGradient cx="50%" cy="50.8164929%" fx="50%" fy="50.8164929%" r="49.1890632%" id="radialGradient-1">
            <stop stop-color="#FF4400" offset="0%"></stop>
            <stop stop-color="#0A0E1A" offset="100%"></stop>
        </radialGradient>
    </defs>
    <g id="website" stroke="none" stroke-width="1" fill="none" fill-rule="evenodd">
        <g id="2.2-v1_fall_menu-folded-out" transform="translate(-947.000000, -428.000000)">
            <g id="background" transform="translate(0.000000, -732.000000)">
                <rect id="frame" fill="#0C0C0C" x="0" y="732" width="1440" height="1024"></rect>
                <circle id="Oval" fill="url(#radialGradient-1)" opacity="0.0458308629" cx="720" cy="720" r="720"></circle>
            </g>
            <g id="swap" transform="translate(923.000000, 212.000000)">
                <g id="amount" transform="translate(0.000000, 47.000000)">
                    <path d="M2,0 L478,0 C479.104569,-2.02906125e-16 480,0.8954305 480,2 L480,191 C480,192.104569 479.104569,193 478,193 L2,193 C0.8954305,193 1.3527075e-16,192.104569 0,191 L0,2 C-1.3527075e-16,0.8954305 0.8954305,2.02906125e-16 2,0 Z" id="Rectangle" fill="#1A1817"></path>
                    <polygon id="Rectangle" fill-opacity="0.0479932665" fill="#FFFFFF" points="0 0 197 0 197 193 0 193"></polygon>
                </g>
            </g>
            <g id="menu-folded-out" transform="translate(923.000000, 364.000000)">
                <path d="M2,0 L195,0 C196.104569,-2.02906125e-16 197,0.8954305 197,2 L197,350 C197,351.104569 196.104569,352 195,352 L2,352 C0.8954305,352 1.3527075e-16,351.104569 0,350 L0,2 C-5.7935996e-16,0.8954305 0.8954305,2.02906125e-16 2,0 Z" id="Rectangle" fill="#302E2C"></path>
                <g id="LN-BTC" transform="translate(24.000000, 64.000000)" fill-rule="nonzero">
                    <g transform="translate(1.024390, 0.000000)">
                        <g id="Group-6" transform="translate(8.195122, 0.000000)">
                            <path d="M32.2853659,19.8666667 C30.1,28.4333333 21.204878,33.65 12.4292683,31.5166667 C3.63658537,29.3833333 -1.70731707,20.7 0.495121951,12.1333333 C2.6804878,3.56666667 11.5756098,-1.65 20.3512195,0.483333333 C29.1268293,2.61666667 34.4707317,11.3 32.2853659,19.8666667 L32.2853659,19.8666667 Z" id="Path" fill="#F7931A"></path>
                            <path d="M23.6121951,13.7166667 C23.9365854,11.5833333 22.2804878,10.45 20.0097561,9.68333333 L20.7439024,6.8 L18.9512195,6.36666667 L18.2341463,9.16666667 C17.7560976,9.05 17.2780488,8.95 16.8,8.83333333 L17.5170732,6 L15.7073171,5.58333333 L14.9731707,8.46666667 C14.5804878,8.38333333 14.204878,8.3 13.8292683,8.2 L13.8292683,8.18333333 L11.3536585,7.58333333 L10.8756098,9.45 C10.8756098,9.45 12.2073171,9.75 12.1731707,9.76666667 C12.9073171,9.95 13.0268293,10.4166667 13.0097561,10.7833333 L12.1731707,14.0666667 C12.2243902,14.0833333 12.2926829,14.1 12.3609756,14.1333333 C12.2926829,14.1166667 12.2414634,14.1 12.1731707,14.0833333 L10.995122,18.6833333 C10.9097561,18.9 10.6878049,19.2166667 10.1756098,19.1 C10.1926829,19.1333333 8.86097561,18.7833333 8.86097561,18.7833333 L7.97317073,20.8 L10.3121951,21.3666667 C10.7390244,21.4666667 11.1658537,21.5833333 11.5926829,21.6833333 L10.8414634,24.6 L12.6341463,25.0333333 L13.3682927,22.15 C13.8634146,22.2833333 14.3414634,22.4 14.802439,22.5166667 L14.0682927,25.3833333 L15.8780488,25.8333333 L16.6292683,22.9166667 C19.702439,23.4833333 22.0073171,23.25 22.9804878,20.55 C23.7658537,18.3666667 22.9463415,17.1166667 21.3243902,16.3 C22.4853659,16.0333333 23.3731707,15.2833333 23.6121951,13.7166667 L23.6121951,13.7166667 Z M19.5146341,19.35 C18.9512195,21.5333333 15.195122,20.35 13.9829268,20.05 L14.9731707,16.1833333 C16.1853659,16.4833333 20.095122,17.0666667 19.5146341,19.35 Z M20.0609756,13.6833333 C19.5487805,15.6666667 16.4243902,14.6666667 15.4170732,14.4166667 L16.304878,10.9166667 C17.3292683,11.1666667 20.5902439,11.6166667 20.0609756,13.6833333 Z" id="Shape" fill="#FFFFFF"></path>
                        </g>
                        <path d="M5.99268293,19.2 L2.04878049,19.2 C1.31463415,19.2 0.648780488,18.8 0.341463415,18.15 C0.0170731707,17.5166667 0.102439024,16.7666667 0.529268293,16.2 L7.27317073,7.53333333 C7.78536585,6.86666667 8.70731707,6.61666667 9.5097561,6.93333333 C10.295122,7.25 10.7731707,8.03333333 10.6878049,8.86666667 L10.2439024,12.8 L14.1878049,12.8 C14.9219512,12.8 15.5878049,13.2 15.895122,13.85 C16.202439,14.4833333 16.1341463,15.2333333 15.6902439,15.8 L8.94634146,24.4666667 C8.58780488,24.9333333 8.02439024,25.2 7.42682927,25.2 C7.18780488,25.2 6.93170732,25.15 6.7097561,25.0666667 C5.92439024,24.75 5.44634146,23.9666667 5.53170732,23.1333333 L5.99268293,19.2 Z" id="Path_1_" stroke="#FFFFFF" stroke-width="2.4" fill="#E1C218"></path>
                    </g>
                </g>
            </g>
        </g>
    </g>
</svg>