<?xml version="1.0" encoding="UTF-8"?>
<svg width="42px" height="32px" viewBox="0 0 42 32" version="1.1" xmlns="http://www.w3.org/2000/svg" xmlns:xlink="http://www.w3.org/1999/xlink">
    <title>XMR</title>
    <defs>
        <radialGradient cx="50%" cy="50.8164929%" fx="50%" fy="50.8164929%" r="49.1890632%" id="radialGradient-1">
            <stop stop-color="#FF4400" offset="0%"></stop>
            <stop stop-color="#0A0E1A" offset="100%"></stop>
        </radialGradient>
    </defs>
    <g id="website" stroke="none" stroke-width="1" fill="none" fill-rule="evenodd">
        <g id="2.2-v1_fall_menu-folded-out" transform="translate(-947.000000, -668.000000)">
            <g id="background" transform="translate(0.000000, -732.000000)">
                <rect id="frame" fill="#0C0C0C" x="0" y="732" width="1440" height="1024"></rect>
                <circle id="Oval" fill="url(#radialGradient-1)" opacity="0.0458308629" cx="720" cy="720" r="720"></circle>
            </g>
            <g id="swap" transform="translate(923.000000, 212.000000)">
                <g id="fee-and-rate" transform="translate(0.000000, 256.000000)">
                    <rect id="Rectangle" fill="#1A1817" x="0" y="0" width="480" height="232" rx="2"></rect>
                    <g id="btn_next" transform="translate(0.000000, 184.000000)" fill="#F15A24">
                        <path d="M0,0 L480,0 L480,47 C480,47.5522847 479.552285,48 479,48 L1,48 C0.44771525,48 6.76353751e-17,47.5522847 0,47 L0,0 L0,0 Z" id="Rectangle"></path>
                    </g>
                </g>
            </g>
            <g id="menu-folded-out" transform="translate(923.000000, 364.000000)">
                <path d="M2,0 L195,0 C196.104569,-2.02906125e-16 197,0.8954305 197,2 L197,350 C197,351.104569 196.104569,352 195,352 L2,352 C0.8954305,352 1.3527075e-16,351.104569 0,350 L0,2 C-5.7935996e-16,0.8954305 0.8954305,2.02906125e-16 2,0 Z" id="Rectangle" fill="#302E2C"></path>
                <g id="XMR" transform="translate(24.000000, 304.000000)" fill-rule="nonzero">
                    <g id="Group" transform="translate(9.219512, 0.000000)">
                        <path d="M26.9344456,28.0082326 C26.8612195,28.0701629 26.7879934,28.1308197 26.7132996,28.1903619 C25.8152837,28.9177185 24.8394203,29.5482671 23.8026858,30.0710386 C23.6360016,30.1574789 23.4668683,30.2393419 23.2954853,30.3165311 C21.1794314,31.2988197 18.8118973,31.8464813 16.314383,31.8464813 C13.763213,31.8464813 11.3485468,31.2744614 9.19808154,30.2531679 C9.08581982,30.2016911 8.97478271,30.1477067 8.86505787,30.0912575 C7.82651765,29.570604 6.84872217,28.941805 5.94873607,28.2158346 C5.84800461,28.1359473 5.74851027,28.0545848 5.65028686,27.9717749 C4.39378097,26.9113485 2.91920976,25.3797186 2.04584744,24.0005331 L9.2195122,24.0005331 L9.2195122,16 L16.3902439,23 L23.5609756,16 L23.5609756,24.0005331 L30.7317073,24.0005331 C29.8478919,25.3955841 28.2095081,26.9399369 26.9344456,28.0082326 Z" id="Path" fill="#4C4C4C"></path>
                        <path d="M31.7560976,21 L27.6585366,21 L27.6826225,7.9987925 L16.3902439,18 L5.12195122,7.9987925 L5.12195122,21 L1.03636763,21 C0.461485936,19.374209 0.00568254878,17.7437152 0.00568254878,15.9262425 C0.00568254878,13.2914167 0.662107752,10.8062425 1.82442884,8.61639178 C2.36009376,7.60426349 3.0061866,6.65158016 3.75146487,5.77491916 C4.32951011,5.09321736 4.96458121,4.45958144 5.65012376,3.880551 C6.72562857,2.97215721 7.91836852,2.20517128 9.19791846,1.59915797 C11.3487099,0.577705219 13.763213,0.0056853125 16.314383,0.0056853125 C18.8117343,0.0056853125 21.1792683,0.553506219 23.2954853,1.53563556 C24.6085158,2.14323667 25.8323613,2.91961103 26.9344456,3.84409328 C27.6479441,4.44154365 28.3069029,5.09839639 28.9038843,5.80723756 C29.6475042,6.68577948 30.2916359,7.64023514 30.8250491,8.65396394 C31.9748125,10.8342624 32.6230834,13.3059043 32.6230834,15.9260833 C32.6230834,17.743556 32.3357135,19.3820735 31.7560976,21 Z" id="Path" fill="#FF6600"></path>
                    </g>
                </g>
            </g>
        </g>
    </g>
</svg>