<svg xmlns="http://www.w3.org/2000/svg" width="24" height="24" viewBox="0 0 24 24">
    <g fill="none" fill-rule="evenodd">
        <g>
            <g>
                <g>
                    <g>
                        <path d="M0 0H24V24H0z" transform="translate(-1304 -78) translate(80 50) translate(240) translate(984 28)"/>
                        <path fill="#FFF" fill-rule="nonzero" d="M12 2c3.208 0 5.884 2.613 6.168 6.02l.655 7.855c.048.582.553 1.099 1.177 1.477V18H4v-.627c.63-.38 1.128-.904 1.177-1.498l.655-7.854c.277-3.325 2.831-5.893 5.934-6.016L12 2zm.019 1.066l-.216.005c-2.53.1-4.618 2.138-4.95 4.8l-.025.244-.655 7.854c-.027.325-.096.636-.202.926l-.015.038h12.087l-.006-.016c-.088-.238-.152-.489-.188-.75l-.022-.198-.655-7.854c-.231-2.778-2.36-4.926-4.949-5.043l-.204-.006zM12 21c1.105 0 2-.895 2-2h1c0 1.657-1.343 3-3 3s-3-1.343-3-3h1c0 1.105.895 2 2 2z" transform="translate(-1304 -78) translate(80 50) translate(240) translate(984 28)"/>
                    </g>
                </g>
            </g>
        </g>
    </g>
</svg>
