<svg xmlns="http://www.w3.org/2000/svg" width="24" height="24" viewBox="0 0 24 24">
    <g fill="none" fill-rule="evenodd">
        <g>
            <g>
                <g>
                    <g>
                        <g>
                            <path d="M0 0H24V24H0z" transform="translate(-792 -142) translate(80 50) translate(240) translate(32 80) translate(440 12)"/>
                            <path fill="#000" d="M8.036 15.257l.707.707L4.706 20H8v1H3v-5h1v3.292l4.036-4.035zm7.928 0L20 19.293V16h1v5h-5v-1h3.293l-4.036-4.036.707-.707zM8 3v1l-3.294-.001 4.037 4.037-.707.707L4 4.707V8H3V3h5zm13 0v5h-1V4.706l-4.036 4.037-.707-.707L19.292 4H16V3h5z" transform="translate(-792 -142) translate(80 50) translate(240) translate(32 80) translate(440 12)"/>
                        </g>
                    </g>
                </g>
            </g>
        </g>
    </g>
</svg>
