<svg xmlns="http://www.w3.org/2000/svg" width="24" height="24" viewBox="0 0 24 24">
    <defs>
        <linearGradient id="hhj00k9r3a" x1="100%" x2="-.387%" y1="50%" y2="50%">
            <stop offset="0%" stop-color="#FEA900"/>
            <stop offset="100%" stop-color="#F15A24"/>
        </linearGradient>
    </defs>
    <g fill="none" fill-rule="evenodd">
        <g>
            <g>
                <g>
                    <g>
                        <g>
                            <path d="M0 0H24V24H0z" transform="translate(-939 -398) translate(80 50) translate(240) translate(528 256) translate(91 92)"/>
                            <path fill="url(#hhj00k9r3a)" d="M16.91 20c0-2.83-1.567-5.46-4.145-6.992l-.27-.154L12 12.58l-.494.273-.27.154C8.656 14.541 7.09 17.17 7.09 20h9.818zM7.09 4c0 2.829 1.566 5.457 4.144 6.988l.27.155.496.272.496-.272.27-.155C15.344 9.457 16.91 6.828 16.91 4H7.091zM6.006 19.693c.113-3.16 1.968-6.063 4.94-7.697l-.006.003-.272-.155c-2.809-1.658-4.552-4.477-4.662-7.537L6 4H5V3h14v1h-1l-.005.307c-.113 3.16-1.967 6.06-4.938 7.694l.003-.002.27.154c2.811 1.659 4.555 4.478 4.665 7.54L18 20h1v1H5v-1h1z" transform="translate(-939 -398) translate(80 50) translate(240) translate(528 256) translate(91 92)"/>
                        </g>
                    </g>
                </g>
            </g>
        </g>
    </g>
</svg>
