<?xml version="1.0" encoding="UTF-8"?>
<svg width="280px" height="164px" viewBox="0 0 280 164" version="1.1" xmlns="http://www.w3.org/2000/svg" xmlns:xlink="http://www.w3.org/1999/xlink">
    <title>logo</title>
    <defs>
        <polygon id="path-1" points="0 0.3805 38.74325 0.3805 38.74325 39.1235 0 39.1235"></polygon>
        <polygon id="path-3" points="0.35955 0.2762 38.6675 0.2762 38.6675 39.1237 0.35955 39.1237"></polygon>
        <polygon id="path-5" points="0.20885 0.199 96.28435 0.199 96.28435 57.3022 0.20885 57.3022"></polygon>
    </defs>
    <g id="website" stroke="none" stroke-width="1" fill="none" fill-rule="evenodd">
        <g id="1.1-loading" transform="translate(-580.000000, -368.000000)">
            <g id="logo" transform="translate(580.000000, 368.000000)">
                <g id="Group-3" transform="translate(0.000000, 111.801000)">
                    <mask id="mask-2" fill="white">
                        <use xlink:href="#path-1"></use>
                    </mask>
                    <g id="Clip-2"></g>
                    <path d="M34.38475,32.6665 C34.38475,33.7965 33.41625,34.765 32.28625,34.765 L6.45725,34.765 C5.32725,34.765 4.35875,33.7965 4.35875,32.6665 L4.35875,6.8375 C4.35875,5.7075 5.32725,4.739 6.45725,4.739 L32.28625,4.739 C33.41625,4.739 34.38475,5.7075 34.38475,6.8375 L34.38475,32.6665 Z M32.28625,0.3805 L6.45725,0.3805 C2.85175,0.3805 -0.00025,3.2325 -0.00025,6.8375 L-0.00025,32.6665 C-0.00025,36.2715 2.85175,39.1235 6.45725,39.1235 L32.28625,39.1235 C35.89125,39.1235 38.74325,36.2715 38.74325,32.6665 L38.74325,6.8375 C38.74325,3.2325 35.89125,0.3805 32.28625,0.3805 L32.28625,0.3805 Z" id="Fill-1" fill="#F2F2F2" mask="url(#mask-2)"></path>
                </g>
                <path d="M71.94235,144.4133 C71.94235,145.5438 70.97385,146.5118 69.84385,146.5118 L51.11785,146.5118 C49.93385,146.5118 48.96535,145.5438 48.96535,144.4133 L48.96535,126.2258 C48.96535,125.0953 49.93385,124.1273 51.11785,124.1273 L69.84385,124.1273 C70.97385,124.1273 71.94235,125.0953 71.94235,126.2258 L71.94235,144.4133 Z M69.84385,119.7148 L44.55285,119.7148 L44.55285,163.3008 L48.96535,163.3008 L48.96535,150.9243 L69.84385,150.9243 C73.44885,150.9243 76.35485,148.0188 76.35485,144.4133 L76.35485,126.2258 C76.35485,122.6203 73.44885,119.7148 69.84385,119.7148 L69.84385,119.7148 Z" id="Fill-4" fill="#F2F2F2"></path>
                <path d="M107.4553,133.1135 L84.5323,133.1135 L84.5323,126.226 C84.5323,125.0955 85.5008,124.127 86.6308,124.127 L105.3568,124.127 C106.5403,124.127 107.4553,125.0955 107.4553,126.226 L107.4553,133.1135 Z M105.3568,119.7145 L86.6308,119.7145 C83.0258,119.7145 80.1198,122.6205 80.1198,126.226 L80.1198,144.4135 C80.1198,148.019 83.0258,150.9245 86.6308,150.9245 L111.9218,150.9245 L111.9218,146.512 L86.6308,146.512 C85.5008,146.512 84.5323,145.5435 84.5323,144.4135 L84.5323,137.5255 L111.9218,137.5255 L111.9218,126.226 C111.9218,122.6205 109.0158,119.7145 105.3568,119.7145 L105.3568,119.7145 Z" id="Fill-6" fill="#F2F2F2"></path>
                <path d="M142.8064,119.7146 L117.5159,119.7146 L117.5159,150.9246 L121.9284,150.9246 L121.9284,126.2256 C121.9284,125.0956 122.8974,124.1271 124.0809,124.1271 L142.8064,124.1271 C143.9364,124.1271 144.9049,125.0956 144.9049,126.2256 L144.9049,150.9246 L149.3174,150.9246 L149.3174,126.2256 C149.3174,122.6206 146.4124,119.7146 142.8064,119.7146" id="Fill-8" fill="#F2F2F2"></path>
                <path d="M189.6594,144.44995 C189.6594,145.58345 188.6879,146.55445 187.5549,146.55445 L161.6564,146.55445 C160.5239,146.55445 159.5519,145.58345 159.5519,144.44995 L159.5519,118.55145 C159.5519,117.41845 160.5239,116.44745 161.6564,116.44745 L187.5549,116.44745 C188.6879,116.44745 189.6594,117.41845 189.6594,118.55145 L189.6594,144.44995 Z M187.5549,112.07745 L155.1819,112.07745 L155.1819,150.92445 L187.5549,150.92445 C191.1699,150.92445 194.0294,148.06445 194.0294,144.44995 L194.0294,118.55145 C194.0294,114.93695 191.1699,112.07745 187.5549,112.07745 L187.5549,112.07745 Z" id="Fill-10" fill="#F15A24"></path>
                <polygon id="Fill-12" fill="#F15A24" points="200.17895 150.92455 235.62695 150.92455 235.62695 146.55455 204.54895 146.55455 204.54895 133.71305 229.53045 133.71305 229.53045 129.28905 204.54895 129.28905 204.54895 116.44755 235.62695 116.44755 235.62695 112.07755 200.17895 112.07755"></polygon>
                <g id="Group-16" transform="translate(240.500000, 111.801000)">
                    <mask id="mask-4" fill="white">
                        <use xlink:href="#path-3"></use>
                    </mask>
                    <g id="Clip-15"></g>
                    <path d="M22.31905,19.6997 L38.61355,0.2762 L33.00205,0.2762 L19.51355,16.3007 L5.97105,0.2762 L0.35955,0.2762 L16.65405,19.6997 L0.35955,39.1237 L5.97105,39.1237 L19.51355,23.0992 L33.00205,39.1237 L38.66755,39.1237 C33.27155,32.8107 27.55305,26.0127 22.31905,19.6997" id="Fill-14" fill="#F15A24" mask="url(#mask-4)"></path>
                </g>
                <g id="Group-19" transform="translate(84.000000, 0.301000)">
                    <mask id="mask-6" fill="white">
                        <use xlink:href="#path-5"></use>
                    </mask>
                    <g id="Clip-18"></g>
                    <path d="M79.43185,10.4092 C70.76435,3.7297 60.38535,0.1987 49.41785,0.1987 C36.27385,0.1987 23.91635,5.3172 14.62185,14.6112 C5.32735,23.9057 0.20885,36.2632 0.20885,49.4072 L0.20885,57.3022 L33.87685,36.3707 L26.71685,30.4882 L9.87235,40.9607 C13.76685,22.7067 30.01885,8.9747 49.41785,8.9747 C67.13535,8.9747 82.86635,20.6352 88.05985,37.4672 C88.10785,37.6232 91.96985,36.0977 96.28435,34.3727 C93.25385,24.9442 87.32135,16.4892 79.43185,10.4092" id="Fill-17" fill="#F2F2F2" mask="url(#mask-6)"></path>
                </g>
                <path d="M149.01685,59.0613 L159.11935,63.9023 L173.18185,57.0518 C169.71885,75.8543 153.20585,90.1408 133.41785,90.1408 C114.79535,90.1408 98.76335,77.6423 94.22035,59.6698 C94.19285,59.5608 90.04785,62.0333 86.38335,64.2048 C89.27435,73.5633 94.98135,81.9748 102.68485,88.1423 C111.36435,95.0908 122.27835,98.9173 133.41785,98.9173 C146.56185,98.9173 158.91935,93.7988 168.21385,84.5043 C177.50785,75.2098 182.62635,62.8523 182.62635,49.7083 L182.62635,42.6903 L149.01685,59.0613 Z" id="Fill-20" fill="#F15A24"></path>
            </g>
        </g>
    </g>
</svg>